<?xml version="1.0" standalone="no"?>
<!DOCTYPE svg PUBLIC "-//W3C//DTD SVG 20010904//EN"
 "http://www.w3.org/TR/2001/REC-SVG-20010904/DTD/svg10.dtd">
<svg version="1.0" xmlns="http://www.w3.org/2000/svg"
 width="1280.000000pt" height="675.000000pt" viewBox="0 0 1280.000000 675.000000"
 preserveAspectRatio="xMidYMid meet">
<g transform="translate(0.000000,675.000000) scale(0.100000,-0.100000)"
fill="#000000" stroke="none">
<path d="M4201 6712 c-80 -31 -100 -44 -134 -85 -46 -54 -55 -88 -64 -259 -3
-74 -10 -111 -19 -119 -8 -6 -14 -22 -14 -35 0 -28 -26 -44 -70 -44 -44 0 -90
-24 -143 -73 -24 -23 -113 -83 -198 -134 -168 -100 -333 -216 -418 -294 -30
-27 -60 -49 -67 -49 -8 0 -42 -24 -76 -53 -35 -29 -75 -58 -90 -64 -14 -6 -34
-25 -43 -41 -10 -16 -40 -40 -69 -54 -51 -26 -147 -94 -199 -142 -16 -15 -62
-49 -102 -76 -41 -28 -81 -60 -90 -72 -56 -80 -115 -174 -115 -184 0 -6 -14
-30 -31 -54 -28 -38 -129 -261 -129 -283 0 -27 -127 -235 -216 -354 -57 -76
-122 -172 -144 -213 -46 -87 -72 -120 -94 -120 -8 0 -50 16 -93 36 -90 41
-173 69 -258 89 -33 7 -98 27 -145 43 -61 22 -113 32 -185 37 -58 4 -106 13
-115 20 -8 7 -34 18 -57 24 -30 8 -47 21 -60 42 -22 37 -100 88 -146 96 -41 6
-53 0 -166 -82 -47 -34 -126 -87 -176 -116 -119 -71 -184 -138 -235 -243 -22
-45 -40 -89 -40 -97 0 -21 39 -56 77 -69 37 -13 60 -4 173 75 69 48 84 55 184
74 59 12 132 21 162 21 61 0 148 -27 194 -60 17 -12 63 -29 103 -37 40 -8 91
-23 113 -33 23 -10 73 -25 110 -34 111 -25 234 -78 377 -164 175 -104 190
-109 269 -93 120 24 175 64 475 353 134 128 221 196 346 270 46 27 76 38 90
34 15 -4 42 -40 82 -108 33 -57 81 -131 108 -166 45 -60 85 -118 151 -219 15
-24 32 -58 36 -76 5 -18 14 -47 21 -64 15 -36 6 -59 -76 -198 -104 -175 -214
-439 -235 -560 -6 -38 -25 -101 -42 -140 -51 -118 -59 -147 -68 -244 -7 -78
-13 -98 -33 -120 -14 -14 -30 -36 -36 -48 -17 -33 -14 -168 4 -203 13 -25 15
-71 13 -267 l-3 -238 -190 0 -190 0 -3 301 -2 301 -258 5 c-141 3 -261 2 -265
-2 -12 -11 -26 -1732 -14 -1747 7 -10 73 -13 268 -13 l259 0 0 289 c0 159 3
296 6 305 5 14 32 16 194 16 182 0 189 -1 195 -21 4 -11 4 -148 0 -304 l-8
-283 244 -7 c134 -4 255 -6 269 -4 l25 4 7 660 c4 363 9 728 10 810 l3 150
122 10 c113 9 125 12 149 37 20 20 25 32 20 51 -8 32 -20 36 -130 44 -105 7
-128 17 -211 87 -115 98 -118 102 -120 163 -1 46 2 57 17 61 10 2 22 19 27 40
6 19 20 45 32 58 15 17 22 35 21 60 -2 41 13 72 173 354 54 96 108 186 121
200 12 14 59 90 103 170 l81 145 0 80 c-1 44 -7 109 -14 145 -42 206 -157 564
-222 692 -24 48 -44 93 -44 99 0 6 20 41 44 78 41 60 113 121 144 121 15 0 69
64 93 111 35 69 366 379 405 379 7 0 24 -15 38 -32 198 -256 227 -288 309
-329 96 -49 285 -62 427 -28 47 11 128 26 180 33 52 7 102 16 111 20 9 4 25
26 35 49 22 48 59 67 96 50 46 -21 134 -53 145 -53 27 0 183 -82 194 -101 5
-11 9 -43 7 -72 l-3 -52 40 -13 c70 -23 82 -43 151 -263 35 -112 68 -222 73
-244 18 -77 183 -571 207 -618 13 -27 24 -59 24 -71 0 -12 -40 -79 -89 -148
-48 -69 -125 -179 -170 -244 -45 -65 -124 -180 -176 -254 -172 -246 -245 -357
-245 -373 0 -8 -14 -26 -31 -39 -17 -13 -49 -39 -70 -59 -37 -35 -39 -40 -39
-97 0 -50 -4 -66 -26 -91 -24 -29 -31 -31 -88 -31 l-63 0 -6 -428 c-4 -235 -7
-631 -7 -879 l0 -453 265 0 265 0 0 114 c0 79 4 117 13 124 7 6 105 12 247 14
223 4 239 5 315 31 118 39 199 91 300 192 153 152 217 307 217 525 0 140 -23
235 -84 353 -59 116 -199 256 -315 315 -137 71 -197 81 -502 88 -146 3 -271 7
-277 9 -8 2 -6 25 6 74 10 39 16 80 13 90 -3 10 2 32 10 47 8 16 17 46 20 67
6 37 70 138 290 457 40 58 120 173 177 255 143 207 156 223 211 250 39 20 63
25 121 25 40 -1 85 -6 100 -13 36 -16 169 -126 693 -571 427 -362 434 -368
439 -381 9 -23 -19 -57 -59 -71 -84 -28 -122 -109 -92 -194 12 -34 13 -46 4
-52 -7 -4 -150 -5 -318 -1 l-307 6 -6 -134 c-3 -74 -7 -470 -9 -880 l-3 -747
211 -7 c115 -4 235 -5 265 -3 l55 3 3 122 c2 105 5 123 20 127 9 3 112 5 227
4 184 -1 219 1 287 20 243 66 446 258 525 497 24 71 27 96 27 225 1 205 -32
312 -146 464 -97 130 -274 246 -418 276 -95 19 -113 52 -65 122 14 20 25 48
25 62 0 14 5 28 10 31 17 11 11 29 -25 69 -19 22 -35 46 -35 53 0 19 -41 73
-55 73 -6 0 -24 14 -41 31 -16 17 -69 65 -119 107 -49 42 -92 79 -95 82 -3 3
-34 30 -70 60 -36 30 -83 71 -105 90 -22 19 -67 58 -100 85 -32 28 -95 82
-140 120 -44 39 -149 129 -233 199 -201 168 -262 225 -262 242 0 8 9 23 19 33
21 21 84 33 271 51 263 27 949 126 964 140 8 8 2 107 -29 515 -21 262 -24 283
-43 289 -10 3 -87 14 -172 25 -297 39 -777 100 -860 110 -47 6 -139 17 -205
26 -66 9 -254 32 -418 50 l-299 33 -36 40 c-20 22 -48 43 -62 47 -44 14 -164
74 -204 104 -29 20 -43 41 -52 72 -7 24 -26 59 -41 77 l-28 34 -75 -12 c-153
-24 -187 -24 -239 -1 -27 11 -82 26 -123 31 -153 23 -185 31 -268 72 -47 23
-104 49 -126 58 -68 28 -107 64 -147 138 l-37 70 10 73 c6 41 8 86 5 101 -7
29 13 75 41 99 10 8 30 31 45 52 22 30 26 45 22 75 -5 34 -1 42 28 66 31 26
37 28 113 24 l81 -3 5 45 c3 25 9 50 13 57 4 7 1 26 -8 42 -22 43 -19 58 15
70 19 6 34 21 40 38 6 15 22 37 36 49 l25 20 -33 45 c-22 31 -32 55 -31 79 0
19 -8 66 -19 103 -18 65 -17 107 2 107 13 0 42 59 35 70 -15 24 -97 50 -360
114 -11 2 -62 -12 -114 -32z m1761 -5255 c88 -52 130 -167 94 -261 -21 -54
-91 -121 -143 -136 -23 -7 -104 -10 -213 -8 l-175 3 -3 205 c-1 112 0 211 3
218 4 11 43 13 197 10 190 -3 194 -3 240 -31z m1718 -1 c137 -72 169 -246 63
-347 -69 -66 -81 -69 -293 -69 -174 0 -190 1 -191 18 -3 51 4 408 8 415 3 5
89 7 192 5 157 -3 191 -6 221 -22z"/>
<path d="M9136 1818 c-3 -156 -8 -574 -10 -930 l-4 -647 256 -3 c142 -2 263
-1 270 1 9 2 12 84 12 365 0 199 4 367 9 375 7 11 13 12 23 5 7 -6 278 -223
601 -483 324 -260 592 -470 595 -466 10 9 22 1938 13 1948 -4 4 -124 6 -267 5
l-259 -3 -3 -413 c-2 -356 -4 -414 -17 -418 -10 -4 -221 159 -609 470 -326
262 -595 476 -598 476 -3 0 -8 -127 -12 -282z"/>
<path d="M985 2083 c-124 -17 -294 -92 -388 -170 -117 -98 -208 -241 -249
-390 -29 -108 -29 -278 0 -384 37 -137 131 -290 246 -398 20 -19 36 -43 36
-52 0 -9 -65 -79 -145 -155 l-146 -137 26 -27 c112 -117 369 -145 537 -59 54
28 139 109 179 170 87 137 94 331 17 483 -11 21 -61 82 -110 134 -49 51 -98
113 -109 135 -56 125 13 274 144 312 69 20 112 15 177 -21 l44 -25 185 185
185 185 -24 27 c-38 41 -153 112 -227 140 -116 44 -265 63 -378 47z"/>
<path d="M3895 2065 c-292 -64 -540 -305 -615 -599 -28 -110 -28 -302 0 -412
39 -151 114 -278 231 -390 113 -107 220 -167 363 -204 110 -28 302 -28 412 0
295 76 528 311 601 608 24 99 22 303 -5 403 -40 148 -123 281 -245 395 -115
106 -233 169 -375 199 -83 18 -286 18 -367 0z m324 -550 c62 -34 95 -71 129
-143 20 -45 23 -65 20 -125 -5 -85 -26 -136 -83 -192 -56 -57 -107 -78 -192
-83 -60 -3 -80 0 -125 20 -74 34 -113 70 -143 132 -56 115 -41 234 41 325 72
80 124 102 230 97 55 -2 82 -9 123 -31z"/>
<path d="M11835 2026 c-205 -32 -373 -124 -531 -288 -183 -191 -263 -409 -251
-688 4 -94 12 -147 32 -215 99 -337 396 -604 739 -664 77 -14 252 -13 391 2
l110 12 5 170 5 170 78 3 77 3 0 263 0 263 -334 8 c-184 4 -339 4 -345 0 -7
-4 -11 -58 -11 -148 0 -161 -5 -179 -43 -154 -14 9 -42 34 -62 54 -158 163
-149 428 20 581 207 187 530 118 649 -139 l33 -71 196 203 196 203 -17 31
c-34 60 -214 228 -299 279 -193 114 -416 156 -638 122z"/>
<path d="M8467 1728 c-4 -149 -7 -545 -7 -880 l0 -608 259 0 c143 0 262 3 264
8 3 4 8 400 12 880 l7 872 -264 0 -265 0 -6 -272z"/>
</g>
</svg>
